<svg width="320" height="376" viewBox="0 0 320 376" fill="none" xmlns="http://www.w3.org/2000/svg">
<path d="M314.722 340.311C312.711 340.2 308.139 338.968 305.421 338.295C274.906 330.66 245.731 324.583 215.249 316.796C189.878 310.311 164.392 304.232 139.223 297.016C128.347 293.894 119.806 296.186 111.196 302.568C94.5408 314.89 77.7522 327.018 60.8301 338.952C43.5769 351.128 26.1702 363.079 8.6102 374.806C6.69779 376.087 3.545 375.541 1.01994 375.887C0.72763 373.461 -0.296243 370.862 0.280289 368.669C7.02301 342.906 14.1117 317.193 20.9651 291.447C29.428 259.68 38.3602 228.023 45.7463 196.004C47.6558 187.74 44.4642 178.299 43.7644 169.435C39.2514 115.079 34.8065 60.6946 30.4294 6.28191C30.2705 4.29732 31.3302 2.21459 31.8187 0.185455C34.1392 0.923832 37.0547 1.01871 38.6727 2.51576C45.0551 8.48059 51.2289 14.6967 57.1182 21.1411C68.2089 33.3022 78.9291 45.7866 90.0198 57.9477C106.999 76.5671 124.079 95.106 141.422 113.395C142.879 114.936 147.171 115.5 149.235 114.508C187.732 96.2619 226.085 77.7058 264.476 59.2481C280.171 51.7076 295.84 44.1108 311.685 36.9011C313.846 35.9259 316.96 37.0754 319.63 37.2537C319.443 39.9165 320.146 43.0487 318.968 45.1351C299.574 79.6837 279.905 114.072 260.408 148.555C249.024 168.708 237.989 189.043 226.495 209.123C223.988 213.507 224.442 216.348 227.507 220.206C256.579 256.565 285.459 293.08 314.36 329.588C316.72 332.613 320.14 335.487 314.722 340.311Z" fill="#00A37C"/>
</svg>
