<svg width="331" height="379" viewBox="0 0 331 379" fill="none" xmlns="http://www.w3.org/2000/svg">
<path d="M0.203139 369.763C0.458287 358.374 0.779007 345.539 1.01228 332.704C1.47155 308.042 1.74129 283.372 2.32448 258.71C2.84207 235.566 3.78246 212.437 4.24902 189.3C4.77389 164.879 5.01447 140.457 5.39355 116.036C5.54664 106.72 5.39351 97.3747 6.08606 88.088C6.47731 84.6116 7.85054 81.3191 10.0445 78.5968C24.2963 60.7242 38.8688 43.1145 53.259 25.3588C58.5515 18.8318 63.6982 12.1734 68.8303 5.51496C73.3427 -0.325746 78.7956 -0.793003 83.8693 4.78487C106.711 29.9048 129.509 55.0782 152.263 80.3052C183.692 114.95 215.141 149.576 246.609 184.182C267.376 207.107 288.057 230.11 308.654 253.19C310.923 255.839 312.45 259.044 313.078 262.477C318.859 296.455 324.385 330.477 329.925 364.5C331.23 372.531 327.957 376.232 319.654 375.363C295.014 372.786 270.396 369.917 245.778 367.106C197.295 361.572 148.813 356.006 100.33 350.409C97.3324 350.119 94.3616 349.599 91.4435 348.854C77.2647 344.919 66.4975 353.775 54.8045 358.746C40.7568 364.719 27.0226 371.443 13.1135 377.729C6.79316 380.634 1.66841 377.904 0.203139 369.763Z" fill="#418EFF"/>
</svg>
