<svg width="450" height="408" viewBox="0 0 450 408" fill="none" xmlns="http://www.w3.org/2000/svg">
<path d="M267.235 79.8129C299.105 30.1031 356.27 -7.75399 417.131 1.49692C434.146 4.12797 452.752 20.8235 448.594 39.5578C430.428 116.853 400.199 190.691 375.459 265.997C356.224 315.004 310.869 355.368 259.575 367.346C193.57 381.391 127.033 392.716 60.8439 406.12C45.9629 409.153 32.0586 407.694 19.0253 399.723C-10.8939 381.24 2.24674 341.666 11.7672 315.045C36.5874 248.858 52.5948 178.699 84.0817 115.36C101.99 81.1444 136.95 60.7407 170.26 43.9048C203.886 26.9236 270.688 27.9564 267.235 79.8129Z" fill="#FF59BD"/>
</svg>
