<svg width="600" height="500" viewBox="0 0 600 500" fill="none" xmlns="http://www.w3.org/2000/svg">
<path d="M510.432 2.01241L267.211 153.974C264.809 155.475 261.882 155.887 259.159 155.107L13.629 84.7714C3.74854 81.941 -3.46134 94.0682 3.74509 101.396L176.953 277.529C179.847 280.472 180.636 284.89 178.939 288.653L90.3851 484.958C86.2537 494.116 96.6944 502.965 105.052 497.387L302.905 365.348C305.345 363.72 308.376 363.245 311.197 364.049L587.149 442.705C597.152 445.557 604.319 433.14 596.846 425.904L407.104 242.183C403.855 239.038 403.121 234.103 405.315 230.148L524.475 15.3441C529.484 6.31515 519.188 -3.45862 510.432 2.01241Z" fill="#00A37C"/>
</svg>
